<?xml version="1.0" standalone="no"?>
<!DOCTYPE svg PUBLIC "-//W3C//DTD SVG 20010904//EN"
 "http://www.w3.org/TR/2001/REC-SVG-20010904/DTD/svg10.dtd">
<svg version="1.0" xmlns="http://www.w3.org/2000/svg"
 width="512.000000pt" height="512.000000pt" viewBox="0 0 512.000000 512.000000"
 preserveAspectRatio="xMidYMid meet">

<g transform="translate(0.000000,512.000000) scale(0.100000,-0.100000)"
fill="#000000" stroke="none">
<path d="M3853 3548 c-32 -17 -95 -52 -141 -79 -45 -27 -85 -49 -87 -49 -2 0
-37 -20 -77 -43 -60 -36 -328 -189 -505 -288 -187 -105 -324 -186 -354 -210
-21 -16 -47 -51 -60 -81 -22 -49 -24 -66 -24 -208 0 -139 3 -161 23 -210 44
-103 56 -113 317 -255 39 -21 87 -49 107 -62 21 -13 39 -23 41 -23 2 0 53 -27
113 -61 60 -34 138 -77 174 -97 36 -20 124 -69 195 -111 310 -178 398 -212
431 -166 51 69 79 263 55 374 -11 51 -73 151 -93 151 -5 0 -25 10 -46 23 -20
13 -84 48 -142 79 -58 31 -130 69 -160 85 -30 17 -95 52 -145 78 -49 27 -112
60 -140 75 -27 15 -78 42 -112 60 -35 17 -63 35 -63 39 0 4 169 104 376 222
509 289 529 309 529 519 -1 131 -20 191 -72 228 -60 43 -77 44 -140 10z m113
-113 c55 -59 56 -169 3 -265 -17 -30 -80 -69 -440 -275 -263 -150 -431 -252
-449 -272 -26 -29 -28 -35 -18 -70 5 -21 15 -43 20 -50 5 -7 62 -40 126 -74
196 -104 265 -141 307 -164 51 -28 233 -125 350 -186 119 -61 140 -95 140
-219 0 -95 -18 -143 -61 -162 -22 -10 -38 -5 -137 47 -62 32 -137 75 -167 95
-30 21 -86 54 -125 75 -38 21 -74 41 -80 45 -5 4 -35 21 -65 37 -30 16 -95 52
-145 80 -49 28 -121 67 -160 88 -38 21 -74 41 -80 45 -5 4 -30 18 -55 32 -25
14 -79 44 -121 66 -42 23 -83 50 -91 60 -48 55 -72 239 -44 337 20 65 47 96
122 136 27 14 119 65 204 114 85 48 171 97 190 108 118 66 415 235 470 267 36
21 88 50 115 65 28 16 64 39 80 51 42 33 72 30 111 -11z"/>
<path d="M2150 3542 c-19 -10 -75 -41 -123 -70 -48 -29 -90 -52 -93 -52 -2 0
-21 -10 -42 -23 -20 -13 -66 -40 -102 -59 -36 -20 -135 -75 -220 -123 -85 -48
-229 -128 -319 -178 -178 -100 -243 -153 -280 -230 -64 -132 -44 -372 41 -502
32 -49 110 -103 283 -199 28 -16 217 -128 420 -249 429 -256 447 -265 523
-273 49 -5 61 -3 85 16 39 31 64 85 75 167 12 82 0 213 -24 273 -19 48 -102
125 -170 160 -27 13 -80 43 -119 65 -38 23 -77 44 -85 48 -25 12 -166 87 -313
166 -76 41 -136 78 -134 84 1 5 54 36 117 69 63 33 174 90 245 128 72 37 184
95 250 129 147 76 186 113 214 206 36 116 22 307 -27 374 -57 77 -137 107
-202 73z m128 -115 c57 -60 69 -204 26 -297 -34 -74 -44 -83 -138 -131 -44
-23 -112 -58 -151 -79 -38 -20 -128 -68 -200 -105 -290 -151 -360 -189 -367
-199 -4 -6 -8 -32 -8 -58 0 -55 2 -56 155 -138 55 -29 125 -66 155 -83 30 -16
80 -43 110 -60 148 -80 423 -253 440 -277 42 -59 48 -166 13 -252 -29 -73
-113 -65 -274 29 -63 36 -129 74 -148 85 -172 99 -820 490 -828 500 -22 26
-55 144 -60 213 -3 39 0 96 6 127 21 98 32 109 242 225 30 17 108 60 174 98
66 37 149 83 185 103 36 19 70 38 75 42 6 4 37 22 70 40 33 18 132 74 220 123
88 49 171 96 185 103 40 22 93 18 118 -9z"/>
</g>
</svg>
