<?xml version="1.0" standalone="no"?>
<!DOCTYPE svg PUBLIC "-//W3C//DTD SVG 20010904//EN"
 "http://www.w3.org/TR/2001/REC-SVG-20010904/DTD/svg10.dtd">
<svg version="1.0" xmlns="http://www.w3.org/2000/svg"
 width="512.000000pt" height="512.000000pt" viewBox="0 0 512.000000 512.000000"
 preserveAspectRatio="xMidYMid meet">

<g transform="translate(0.000000,512.000000) scale(0.100000,-0.100000)"
fill="#000000" stroke="none">
<path d="M1700 4594 c-59 -42 -55 -76 21 -195 91 -142 129 -222 159 -344 110
-433 28 -1074 -197 -1555 -75 -160 -140 -349 -153 -440 -17 -125 -15 -397 5
-505 87 -483 388 -778 870 -850 144 -21 250 -19 411 10 218 38 287 62 423 144
88 53 241 200 296 286 110 168 165 387 165 657 0 176 -78 520 -172 763 -203
520 -512 992 -933 1424 -171 175 -313 299 -508 442 -217 159 -327 205 -387
163z m130 -87 c66 -28 199 -115 333 -219 525 -408 1010 -1040 1258 -1641 76
-185 96 -246 144 -442 62 -252 68 -304 62 -490 -7 -193 -32 -299 -106 -450
-98 -196 -225 -311 -451 -405 -143 -60 -298 -88 -505 -91 -226 -4 -435 55
-588 165 -325 232 -470 710 -357 1174 32 131 50 181 139 390 80 188 114 285
150 434 70 286 100 599 81 846 -22 281 -66 434 -169 585 -63 93 -91 142 -91
156 0 17 40 13 100 -12z"/>
</g>
</svg>
