<?xml version="1.0" standalone="no"?>
<!DOCTYPE svg PUBLIC "-//W3C//DTD SVG 20010904//EN"
 "http://www.w3.org/TR/2001/REC-SVG-20010904/DTD/svg10.dtd">
<svg version="1.0" xmlns="http://www.w3.org/2000/svg"
 width="512.000000pt" height="512.000000pt" viewBox="0 0 512.000000 512.000000"
 preserveAspectRatio="xMidYMid meet">

<g transform="translate(0.000000,512.000000) scale(0.100000,-0.100000)"
fill="#000000" stroke="none">
<path d="M1181 3569 c-46 -18 -84 -53 -104 -98 -17 -38 -21 -66 -22 -161 0
-210 20 -230 529 -519 207 -118 376 -218 376 -222 0 -4 -28 -22 -62 -39 -35
-18 -85 -45 -113 -60 -27 -15 -90 -48 -140 -75 -49 -26 -115 -61 -145 -78 -30
-16 -102 -54 -160 -85 -58 -31 -122 -66 -142 -79 -21 -13 -41 -23 -46 -23 -20
0 -82 -100 -93 -151 -24 -111 4 -305 55 -374 33 -46 121 -12 431 166 72 42
159 91 195 111 36 20 114 63 174 97 60 34 111 61 113 61 2 0 20 10 41 23 20
13 69 41 107 62 261 142 273 152 317 255 20 49 23 71 23 210 0 142 -2 159 -24
208 -13 30 -39 65 -60 81 -30 24 -170 107 -356 211 -98 55 -416 236 -475 270
-36 21 -87 50 -115 65 -27 16 -93 53 -145 83 -116 67 -129 72 -159 61z m83
-122 c17 -13 54 -36 81 -52 28 -15 79 -44 115 -65 55 -32 352 -201 470 -267
19 -11 105 -60 190 -108 85 -49 177 -100 204 -114 75 -40 102 -71 122 -136 28
-98 4 -282 -44 -337 -8 -10 -49 -37 -91 -60 -42 -22 -96 -52 -121 -66 -25 -14
-49 -28 -55 -32 -5 -4 -41 -24 -80 -45 -38 -21 -110 -60 -160 -88 -49 -28
-115 -64 -145 -80 -30 -16 -59 -33 -65 -37 -5 -4 -41 -24 -80 -45 -38 -21 -95
-54 -125 -75 -30 -20 -105 -63 -167 -95 -99 -52 -115 -57 -137 -47 -43 19 -61
67 -61 162 0 124 21 158 140 219 117 61 299 158 350 186 42 23 111 60 307 164
64 34 121 67 126 74 5 7 15 29 20 50 10 35 8 41 -18 70 -18 20 -186 122 -449
272 -360 206 -423 245 -440 275 -53 96 -52 206 3 265 39 41 67 44 110 12z"/>
<path d="M2855 3544 c-49 -25 -93 -74 -111 -123 -9 -25 -18 -92 -21 -148 -5
-85 -2 -112 16 -173 30 -98 67 -134 216 -211 66 -34 179 -92 250 -129 72 -38
182 -95 245 -128 63 -33 116 -64 117 -69 2 -6 -58 -43 -134 -84 -147 -79 -288
-154 -313 -166 -8 -4 -46 -25 -85 -48 -38 -22 -92 -52 -119 -65 -68 -35 -151
-112 -170 -160 -24 -60 -36 -191 -24 -273 11 -82 36 -136 75 -167 24 -19 36
-21 85 -16 76 8 94 17 523 273 204 121 393 233 420 249 173 96 251 150 283
199 85 130 105 370 41 502 -37 77 -102 130 -280 230 -90 50 -234 130 -319 178
-85 48 -184 103 -220 123 -36 19 -82 46 -102 59 -21 13 -40 23 -43 23 -2 0
-49 26 -102 58 -153 90 -172 95 -228 66z m105 -108 c14 -7 97 -54 185 -103 88
-49 187 -105 220 -123 33 -18 65 -36 70 -40 6 -4 39 -23 75 -42 36 -20 119
-66 185 -103 66 -38 144 -81 174 -98 210 -116 221 -127 242 -225 6 -31 9 -88
6 -127 -5 -69 -38 -187 -60 -213 -8 -10 -656 -401 -828 -500 -19 -11 -85 -49
-148 -85 -116 -67 -172 -85 -229 -72 -72 15 -93 209 -32 295 17 24 291 197
445 280 33 18 83 45 110 60 28 15 95 51 150 80 153 82 155 83 155 138 0 26 -4
52 -8 58 -7 10 -77 48 -367 199 -71 37 -161 85 -200 105 -38 21 -107 56 -151
79 -94 48 -104 57 -138 131 -43 93 -31 237 26 297 25 27 78 31 118 9z"/>
</g>
</svg>
