<?xml version="1.0" standalone="no"?>
<!DOCTYPE svg PUBLIC "-//W3C//DTD SVG 20010904//EN"
 "http://www.w3.org/TR/2001/REC-SVG-20010904/DTD/svg10.dtd">
<svg version="1.0" xmlns="http://www.w3.org/2000/svg"
 width="512.000000pt" height="512.000000pt" viewBox="0 0 512.000000 512.000000"
 preserveAspectRatio="xMidYMid meet">

<g transform="translate(0.000000,512.000000) scale(0.100000,-0.100000)"
fill="#000000" stroke="none">
<path d="M2319 4890 c-84 -44 -137 -154 -146 -303 -6 -80 -7 -87 -19 -66 -7
13 -13 30 -14 37 0 7 -18 50 -39 95 -71 148 -165 227 -271 227 -133 0 -223
-120 -237 -315 l-6 -82 -116 -6 c-207 -9 -261 -54 -289 -237 -4 -30 -2 -642 5
-1360 6 -718 14 -1487 16 -1710 4 -439 4 -445 61 -527 51 -74 107 -104 218
-115 112 -12 2238 -3 2316 10 63 10 106 48 150 131 61 115 61 127 46 847 l-7
302 80 41 c143 74 276 206 343 341 114 227 116 488 5 715 -79 164 -195 279
-361 361 l-91 44 -6 182 c-4 100 -7 316 -7 480 0 273 -2 303 -20 355 -23 67
-63 120 -111 148 -31 18 -51 20 -250 19 l-215 0 -18 45 c-45 116 -60 149 -83
190 -62 108 -152 171 -243 171 -135 0 -224 -121 -237 -322 -4 -56 -10 -88 -17
-88 -7 0 -12 8 -13 18 -4 56 -91 235 -144 295 -79 91 -195 122 -280 77z m158
-61 c70 -34 146 -146 172 -254 7 -27 17 -55 23 -62 8 -10 5 -13 -14 -13 -14 0
-59 -3 -101 -6 -74 -7 -77 -6 -77 15 0 29 23 36 54 16 33 -22 56 -13 56 20 0
18 -10 31 -32 45 -68 41 -126 13 -148 -71 -14 -51 -8 -97 19 -152 l20 -40 -28
-33 c-16 -18 -32 -47 -36 -64 l-7 -32 -23 22 c-37 34 -85 134 -98 202 -20 103
-14 255 11 308 26 55 52 86 89 105 38 20 69 19 120 -6z m600 0 c69 -34 146
-146 171 -250 7 -26 14 -54 18 -63 5 -14 -5 -16 -90 -16 -80 0 -96 3 -96 15 0
24 26 28 54 10 33 -22 56 -13 56 20 0 46 -83 80 -131 55 -50 -28 -67 -160 -29
-234 l19 -39 -24 -29 c-14 -16 -28 -47 -31 -69 l-7 -40 -28 27 c-33 31 -80
119 -104 193 -24 75 -17 256 13 321 26 55 52 86 89 105 38 20 69 19 120 -6z
m-1182 -29 c23 -11 51 -30 63 -43 32 -34 91 -137 102 -177 25 -96 26 -90 -14
-90 -32 0 -36 3 -36 25 0 18 -10 31 -32 45 -61 37 -106 23 -139 -41 -17 -34
-19 -51 -14 -93 4 -28 12 -62 17 -75 7 -20 4 -30 -21 -55 -16 -17 -36 -47 -43
-66 l-15 -35 -31 55 c-52 88 -66 150 -66 285 0 103 3 126 21 165 27 56 53 86
90 105 38 20 69 19 118 -5z m50 -300 c4 -6 -5 -10 -20 -10 -15 0 -24 4 -20 10
3 6 12 10 20 10 8 0 17 -4 20 -10z m1846 -86 c23 -13 44 -39 64 -79 l30 -60 3
-468 3 -468 -48 8 c-86 14 -252 6 -336 -16 -244 -64 -461 -262 -546 -496 -37
-104 -55 -225 -48 -328 l5 -81 -66 125 c-58 108 -70 124 -92 124 -20 0 -25 -5
-25 -25 0 -30 201 -416 221 -424 8 -3 20 -3 27 0 20 7 268 481 261 498 -7 19
-32 28 -49 19 -7 -5 -52 -85 -101 -180 -56 -109 -92 -169 -98 -163 -5 5 -12
61 -14 123 -4 93 -1 129 17 198 68 268 247 458 511 541 63 19 95 23 205 22
148 0 228 -21 352 -89 94 -52 227 -188 275 -280 84 -163 109 -343 69 -508 -55
-231 -203 -411 -417 -508 -122 -55 -217 -68 -439 -56 -36 2 -40 0 -43 -24 -2
-18 3 -29 15 -34 37 -15 256 -17 325 -3 l66 14 6 -100 c3 -56 7 -276 9 -491 2
-424 1 -435 -53 -517 -37 -55 -76 -73 -195 -87 -45 -6 -545 -11 -1145 -13
-903 -3 -1072 -1 -1108 11 -67 22 -120 76 -144 146 -23 65 -24 106 -39 2885
l-4 645 25 50 c14 28 40 60 59 72 30 21 46 23 151 23 l118 0 26 -84 c40 -128
115 -227 229 -300 42 -28 143 -19 189 16 48 37 71 89 66 148 -8 80 -56 126
-152 147 -32 6 -42 14 -53 41 l-13 32 148 0 148 0 23 -70 c33 -103 91 -182
189 -257 79 -60 86 -63 139 -63 102 0 172 57 181 149 9 94 -53 165 -153 175
-27 2 -51 5 -52 5 -4 1 -33 59 -33 66 0 3 69 5 153 5 l152 0 22 -74 c13 -40
41 -101 63 -134 40 -59 106 -122 129 -122 6 0 30 -13 53 -30 34 -25 51 -30 95
-30 102 0 172 58 181 149 9 100 -59 172 -162 172 -53 0 -57 2 -72 31 -13 25
-14 32 -2 40 7 5 149 8 339 5 300 -3 329 -5 360 -23z m-581 -129 c105 -54 28
-212 -84 -175 -20 6 -43 21 -51 33 -36 51 -1 137 55 137 16 0 32 5 35 10 8 13
11 13 45 -5z m-610 -10 c105 -54 28 -212 -84 -175 -44 14 -66 44 -66 86 0 44
41 92 83 97 18 2 33 5 35 5 2 1 16 -5 32 -13z m-684 -16 c4 -7 23 -9 50 -5 37
5 45 2 59 -16 51 -75 -31 -177 -119 -148 -69 22 -87 93 -40 149 28 33 39 38
50 20z"/>
<path d="M1780 3708 c-22 -15 -36 -33 -38 -50 -4 -36 19 -41 61 -11 l36 25
213 -11 c117 -6 324 -11 459 -11 190 0 265 -4 325 -16 74 -16 87 -16 214 2
143 19 311 24 397 11 46 -7 53 -5 62 12 8 15 7 23 -4 35 -31 30 -228 39 -395
16 -158 -21 -207 -23 -257 -9 -35 9 -139 13 -383 14 -184 1 -407 5 -495 9
-158 8 -160 8 -195 -16z"/>
<path d="M1765 3111 c-115 -35 -139 -51 -133 -93 4 -30 34 -35 56 -10 40 46
195 74 264 48 29 -11 69 -16 118 -15 41 1 140 -4 220 -10 82 -7 202 -9 275 -5
106 5 137 3 168 -9 33 -14 38 -14 52 -1 11 12 12 20 5 34 -21 38 -49 45 -170
41 -151 -5 -194 -5 -320 3 -58 4 -150 8 -205 10 -55 2 -113 8 -128 15 -41 16
-132 12 -202 -8z"/>
<path d="M3662 3038 c-9 -9 -12 -91 -12 -309 l0 -297 73 -69 c164 -157 227
-213 240 -213 20 0 39 24 32 41 -3 8 -66 70 -140 139 -102 95 -136 132 -141
155 -3 17 -4 141 -1 276 2 134 1 254 -4 267 -9 24 -28 29 -47 10z"/>
<path d="M2645 2355 c-40 -12 -277 -45 -328 -45 -15 0 -55 9 -89 21 -86 29
-197 33 -385 15 -176 -16 -206 -25 -201 -59 3 -25 -2 -24 148 -7 52 6 151 11
220 12 110 0 135 -3 204 -26 77 -25 83 -26 185 -16 146 15 279 38 313 56 40
20 40 64 1 63 -16 -1 -46 -7 -68 -14z"/>
<path d="M2400 2054 c-49 -36 -162 -88 -268 -124 -82 -27 -94 -29 -148 -19
-139 26 -295 -46 -224 -103 28 -23 49 -23 173 3 l100 20 106 -35 c147 -48 216
-52 446 -27 105 12 278 25 385 30 204 10 225 13 234 38 12 31 -12 42 -82 37
-37 -2 -148 -9 -247 -14 -99 -6 -238 -18 -310 -26 -153 -19 -287 -14 -364 13
l-54 19 64 23 c145 53 262 128 257 164 -4 30 -27 31 -68 1z"/>
<path d="M3075 1349 c-172 -21 -507 -49 -575 -49 -41 0 -120 7 -175 15 -111
16 -277 8 -455 -23 -85 -15 -95 -19 -98 -40 -5 -33 15 -35 130 -17 153 24 322
30 415 15 43 -7 134 -12 203 -12 160 2 626 47 646 62 19 16 18 46 -2 54 -9 3
-16 5 -17 5 -1 -1 -33 -5 -72 -10z"/>
</g>
</svg>
