<?xml version="1.0" standalone="no"?>
<!DOCTYPE svg PUBLIC "-//W3C//DTD SVG 20010904//EN"
 "http://www.w3.org/TR/2001/REC-SVG-20010904/DTD/svg10.dtd">
<svg version="1.0" xmlns="http://www.w3.org/2000/svg"
 width="512.000000pt" height="512.000000pt" viewBox="0 0 512.000000 512.000000"
 preserveAspectRatio="xMidYMid meet">

<g transform="translate(0.000000,512.000000) scale(0.100000,-0.100000)"
fill="#000000" stroke="none">
<path d="M2580 4001 c-202 -66 -361 -290 -391 -550 -12 -108 1 -199 41 -288
17 -36 28 -68 26 -70 -2 -3 -102 33 -223 78 -264 100 -320 109 -405 64 -112
-59 -610 -379 -625 -402 -35 -53 -26 -84 196 -708 176 -495 219 -605 242 -627
47 -44 57 -42 304 68 66 29 195 87 287 128 l167 74 93 -23 c99 -25 224 -63
378 -115 182 -62 300 -90 383 -90 86 0 97 4 244 93 137 83 536 291 555 290 9
-1 97 -24 195 -51 241 -67 248 -68 284 -32 34 33 36 63 10 135 -13 37 -408
975 -527 1252 -21 48 -67 77 -258 164 -202 91 -243 98 -310 53 -40 -27 -55
-22 -56 17 0 43 -44 183 -81 258 -52 105 -153 211 -244 255 -52 26 -73 30
-160 33 -55 1 -111 -1 -125 -6z m256 -91 c82 -40 172 -136 218 -232 78 -164
86 -289 31 -457 -33 -98 -383 -850 -396 -851 -3 0 -37 64 -74 143 -275 572
-304 635 -320 682 -47 139 -50 264 -11 383 99 296 335 438 552 332z m749 -605
c72 -32 136 -64 144 -71 17 -15 53 -94 43 -94 -4 0 -89 23 -190 52 l-182 52
-21 55 c-11 31 -23 68 -26 84 l-6 28 54 -24 c30 -13 113 -50 184 -82z m-267
-13 l29 -88 -116 -66 c-64 -37 -117 -65 -119 -63 -2 2 8 30 23 62 15 32 36 89
46 127 10 38 24 73 31 77 7 4 22 15 33 23 11 8 25 16 32 16 6 0 24 -40 41 -88z
m-1423 -148 c66 -25 187 -71 269 -102 l148 -56 31 -63 c17 -34 28 -65 25 -68
-6 -7 -520 84 -530 93 -14 15 -89 222 -83 232 9 14 9 14 140 -36z m-174 -94
c27 -68 49 -129 49 -135 0 -12 -297 -181 -305 -174 -10 11 -95 252 -90 258 18
17 281 179 289 177 5 -1 31 -58 57 -126z m1907 58 c100 -29 178 -54 173 -56
-5 -2 -85 13 -178 32 -93 20 -172 36 -175 36 -3 0 -8 9 -11 20 -3 11 -2 20 1
20 4 0 89 -24 190 -52z m-260 7 c-24 -22 -330 -206 -335 -201 -15 15 32 50
174 132 87 50 162 89 166 86 5 -2 3 -10 -5 -17z m112 -288 c34 -98 60 -180 59
-181 -13 -10 -637 -335 -648 -338 -14 -3 -71 119 -71 152 0 10 33 87 74 171
l73 154 214 132 c208 129 214 132 225 110 7 -12 40 -102 74 -200z m170 183
c77 -16 153 -30 168 -30 26 0 31 -9 101 -176 40 -96 72 -177 70 -179 -4 -3
-366 52 -386 60 -7 2 -13 11 -13 19 0 9 -25 84 -55 167 -30 83 -55 155 -55
160 0 14 18 11 170 -21z m-2295 -175 c39 -102 45 -128 35 -140 -7 -8 -16 -15
-20 -15 -9 0 -84 153 -100 204 -12 36 -11 40 11 57 13 10 24 19 25 19 1 0 23
-56 49 -125z m-150 28 c28 -72 75 -208 75 -218 0 -8 -34 -33 -76 -56 -61 -33
-78 -39 -85 -28 -19 30 -59 166 -59 201 0 34 5 41 58 77 64 45 77 48 87 24z
m964 -48 c226 -40 260 -51 261 -77 0 -11 13 -12 -275 31 -206 31 -262 43 -272
57 -22 30 -16 44 15 38 15 -2 137 -24 271 -49z m-352 -18 c-3 -10 -306 -171
-312 -166 -2 2 -5 13 -7 23 -2 16 24 35 147 103 135 74 151 80 163 65 7 -9 11
-20 9 -25z m573 -132 c47 -8 86 -18 87 -22 2 -4 41 -87 87 -183 46 -96 83
-176 82 -176 -2 -3 -551 37 -562 41 -8 2 -164 388 -164 407 0 5 295 -37 470
-67z m-461 -150 c44 -115 77 -212 73 -216 -12 -12 -314 -140 -319 -135 -6 5
-142 367 -146 385 -1 8 56 45 153 96 85 46 156 82 156 81 1 0 38 -95 83 -211z
m-492 99 c7 -18 -20 -44 -44 -44 -19 0 -16 37 5 49 24 15 32 13 39 -5z m2390
-34 c103 -17 189 -33 192 -36 3 -4 -12 -4 -34 0 -22 3 -108 8 -191 12 -147 6
-152 7 -163 30 -6 14 -7 24 -1 24 5 0 94 -14 197 -30z m-257 -12 c-1 -11 -604
-368 -636 -376 -11 -3 -31 35 -22 43 7 7 643 344 651 345 4 0 7 -6 7 -12z
m-2250 -18 c9 -18 3 -23 -70 -60 -89 -45 -100 -47 -100 -22 0 11 27 32 78 59
42 23 78 42 79 43 1 0 7 -9 13 -20z m225 -222 c40 -106 70 -196 66 -200 -3 -4
-17 -9 -31 -13 -25 -6 -27 -2 -79 142 -29 81 -62 169 -72 195 l-19 48 28 14
c15 8 29 12 31 10 2 -2 37 -91 76 -196z m2332 156 c108 -4 176 -11 181 -18 16
-20 222 -518 222 -535 0 -10 -6 -24 -12 -33 -12 -14 -34 -10 -217 42 -112 32
-207 64 -212 71 -5 8 -27 70 -50 139 -23 69 -57 160 -75 202 -18 43 -36 94
-40 114 -6 32 -5 36 12 31 11 -3 97 -9 191 -13z m-253 -71 c15 -43 56 -160 91
-260 l63 -181 -315 -167 c-174 -93 -318 -164 -323 -159 -9 11 -182 443 -184
462 -1 10 614 380 635 382 3 0 18 -35 33 -77z m-2200 -143 c38 -105 67 -193
65 -195 -14 -14 -169 -72 -174 -66 -3 5 -27 71 -54 147 -27 77 -56 158 -64
181 l-16 41 77 41 c42 22 82 40 87 41 6 0 41 -86 79 -190z m1382 12 c-3 -2
-21 -1 -41 2 l-35 7 22 42 21 42 19 -44 c10 -24 16 -46 14 -49z m-768 -68 c-2
-9 -10 -21 -18 -25 -49 -27 -296 -127 -302 -123 -24 15 7 35 145 96 83 36 158
67 165 67 8 1 12 -6 10 -15z m804 -9 c6 -14 9 -26 7 -28 -2 -1 -163 0 -358 3
-353 5 -354 5 -369 28 l-14 22 361 0 361 0 12 -25z m-759 -82 c3 -10 26 -76
51 -148 26 -71 45 -134 42 -140 -2 -6 -35 -24 -72 -40 -38 -15 -104 -45 -147
-67 -43 -21 -81 -38 -86 -38 -9 0 -121 275 -121 296 0 8 294 148 321 153 4 1
9 -7 12 -16z m893 -257 c51 -131 91 -242 88 -247 -3 -5 -17 -9 -30 -9 -26 0
-251 63 -356 99 -31 11 -128 40 -215 66 -87 25 -167 50 -179 54 -25 11 -128
267 -110 275 6 2 168 4 359 3 l349 -2 94 -239z m-1326 179 c0 -9 -12 -21 -26
-27 -21 -10 -27 -9 -34 2 -7 11 -3 18 13 27 30 17 47 16 47 -2z m-126 -51 c8
-21 17 -15 -83 -58 -64 -27 -87 -33 -93 -24 -13 21 -11 22 75 60 98 43 93 42
101 22z m208 -164 c27 -69 53 -135 58 -147 8 -20 5 -25 -21 -39 -17 -8 -33
-13 -36 -11 -3 3 -29 72 -59 154 -51 138 -53 149 -37 161 10 7 24 11 32 10 9
-2 35 -56 63 -128z m-137 -27 c21 -60 47 -125 57 -145 10 -21 18 -40 18 -43 0
-9 -129 -65 -149 -65 -10 0 -27 10 -39 23 -25 26 -110 259 -96 264 5 2 43 19
84 38 41 18 77 34 80 34 3 1 23 -47 45 -106z"/>
<path d="M2605 3546 c-38 -17 -90 -72 -104 -109 -17 -45 -13 -124 9 -167 56
-109 206 -139 302 -59 103 84 89 257 -26 324 -49 29 -130 34 -181 11z m152
-72 c83 -52 78 -180 -8 -226 -69 -37 -146 -9 -183 65 -56 115 81 231 191 161z"/>
<path d="M2090 2642 c-46 -19 -66 -33 -67 -47 -4 -26 81 -258 96 -263 15 -5
163 51 167 63 2 6 -18 69 -45 140 -37 101 -52 130 -67 132 -10 1 -48 -10 -84
-25z m91 -140 c17 -50 18 -66 9 -77 -22 -27 -35 -16 -59 53 -13 37 -26 73 -29
79 -6 17 40 34 50 19 4 -6 17 -39 29 -74z"/>
</g>
</svg>
