<?xml version="1.0" standalone="no"?>
<!DOCTYPE svg PUBLIC "-//W3C//DTD SVG 20010904//EN"
 "http://www.w3.org/TR/2001/REC-SVG-20010904/DTD/svg10.dtd">
<svg version="1.0" xmlns="http://www.w3.org/2000/svg"
 width="512.000000pt" height="512.000000pt" viewBox="0 0 512.000000 512.000000"
 preserveAspectRatio="xMidYMid meet">

<g transform="translate(0.000000,512.000000) scale(0.100000,-0.100000)"
fill="#000000" stroke="none">
<path d="M3985 4163 c-857 -12 -2997 -30 -3102 -26 -122 5 -137 4 -185 -17
-63 -26 -148 -105 -148 -137 0 -12 -4 -24 -10 -28 -6 -3 -9 -475 -10 -1267 l0
-1261 21 -59 c25 -68 74 -121 149 -162 l52 -29 1782 7 c979 4 1797 10 1816 13
112 17 218 84 256 160 22 45 22 -44 -2 1558 -16 1063 -16 1070 -37 1109 -28
50 -114 122 -164 135 -21 6 -83 10 -138 9 -55 -2 -181 -4 -280 -5z m415 -79
c8 -8 -128 -144 -517 -515 -290 -277 -581 -555 -645 -616 l-118 -113 -140 0
-140 0 0 225 0 225 -280 0 -280 0 0 -225 0 -225 -120 0 -120 0 -242 216 c-134
119 -436 388 -671 598 l-428 381 33 14 c26 11 129 15 488 18 250 3 957 11
1570 18 1310 15 1594 15 1610 -1z m103 -87 c23 -30 19 100 41 -1467 13 -935
11 -1119 -9 -1139 -7 -7 -245 115 -745 385 -404 217 -751 405 -770 418 -20 13
-61 37 -90 52 l-55 29 208 3 207 2 0 280 0 280 -36 0 -36 0 117 113 c826 788
1132 1076 1139 1074 6 -2 19 -15 29 -30z m-3468 -352 c499 -445 812 -723 859
-767 l41 -37 -57 -1 -58 0 0 -280 0 -280 220 0 c121 0 220 -3 220 -7 0 -5 -60
-42 -133 -84 -179 -102 -817 -469 -1169 -672 -321 -185 -298 -179 -335 -87
-17 42 -18 123 -21 1245 -3 1196 -1 1265 30 1302 13 17 -25 49 403 -332z
m1755 -640 l0 -235 225 0 225 0 0 -215 0 -215 -225 0 -225 0 0 -235 0 -235
-230 0 -230 0 0 235 0 235 -230 0 -230 0 0 215 0 215 228 2 227 3 3 233 2 232
230 0 230 0 0 -235z m915 -1260 c418 -225 764 -412 769 -416 9 -8 -59 -46
-109 -61 -16 -5 -602 -11 -1305 -13 -701 -3 -1483 -7 -1736 -10 -402 -4 -468
-3 -515 11 -54 16 -79 30 -79 44 0 4 66 46 148 92 81 46 422 243 758 436 336
193 618 354 627 358 16 6 17 -10 17 -180 l0 -186 280 0 280 0 0 196 0 195 53
-29 c28 -16 394 -213 812 -437z"/>
</g>
</svg>
