<?xml version="1.0" standalone="no"?>
<!DOCTYPE svg PUBLIC "-//W3C//DTD SVG 20010904//EN"
 "http://www.w3.org/TR/2001/REC-SVG-20010904/DTD/svg10.dtd">
<svg version="1.0" xmlns="http://www.w3.org/2000/svg"
 width="512.000000pt" height="512.000000pt" viewBox="0 0 512.000000 512.000000"
 preserveAspectRatio="xMidYMid meet">

<g transform="translate(0.000000,512.000000) scale(0.100000,-0.100000)"
fill="#000000" stroke="none">
<path d="M2460 4560 c-103 -15 -238 -87 -326 -174 -90 -90 -138 -177 -164
-292 -24 -108 -24 -133 -4 -232 21 -108 66 -193 148 -279 338 -359 977 -163
1057 324 20 129 -11 284 -80 391 -68 107 -197 205 -319 242 -74 23 -221 32
-312 20z"/>
<path d="M2458 3164 c-300 -64 -561 -352 -777 -856 -73 -169 -162 -445 -214
-658 -65 -267 -90 -406 -137 -775 -4 -33 -4 -80 -1 -103 l6 -44 1150 -1 c633
0 1173 3 1202 7 72 11 74 20 62 253 -10 208 -20 297 -50 453 -74 378 -198 747
-369 1095 -170 345 -275 470 -480 572 -146 73 -249 88 -392 57z m595 -466 c34
-41 15 -162 -41 -253 -37 -59 -115 -161 -133 -173 -39 -25 -209 247 -209 336
0 55 11 76 49 92 46 19 80 -3 115 -73 l29 -58 24 47 c13 25 30 56 38 67 34 49
93 56 128 15z"/>
</g>
</svg>
