<?xml version="1.0" standalone="no"?>
<!DOCTYPE svg PUBLIC "-//W3C//DTD SVG 20010904//EN"
 "http://www.w3.org/TR/2001/REC-SVG-20010904/DTD/svg10.dtd">
<svg version="1.0" xmlns="http://www.w3.org/2000/svg"
 width="512.000000pt" height="512.000000pt" viewBox="0 0 512.000000 512.000000"
 preserveAspectRatio="xMidYMid meet">

<g transform="translate(0.000000,512.000000) scale(0.100000,-0.100000)"
fill="#000000" stroke="none">
<path d="M3220 4535 c-18 -9 -57 -31 -85 -49 -68 -46 -955 -786 -1031 -861
-35 -35 -71 -83 -86 -115 -25 -53 -629 -1594 -710 -1810 -22 -58 -51 -134 -64
-170 -94 -244 -110 -331 -75 -387 11 -17 39 -43 63 -57 73 -42 1350 -538 1390
-539 48 -2 91 37 125 113 40 88 872 2217 891 2280 29 95 29 104 -48 605 l-41
270 38 29 c84 65 168 162 208 240 37 73 40 85 40 162 0 77 -2 85 -31 121 -16
21 -52 49 -80 63 -41 21 -61 24 -129 23 -44 -1 -93 -6 -110 -11 -28 -8 -33 -5
-80 46 -46 50 -54 55 -100 58 -32 3 -63 -1 -85 -11z m117 -70 c12 -8 27 -24
33 -35 9 -17 4 -22 -42 -46 -64 -33 -159 -96 -178 -119 -8 -10 -32 -29 -53
-42 -50 -31 -77 -77 -77 -131 0 -86 56 -142 141 -142 60 0 106 31 137 93 23
48 102 112 127 104 5 -2 13 -28 16 -58 8 -67 53 -382 79 -549 10 -69 26 -174
35 -235 9 -60 20 -136 26 -167 7 -39 7 -76 -1 -115 -12 -70 -122 -392 -179
-525 -22 -53 -184 -469 -359 -925 -176 -455 -331 -854 -346 -885 -20 -42 -34
-60 -53 -64 -19 -5 -177 54 -647 241 -341 136 -642 258 -668 271 -60 30 -91
74 -91 128 0 29 50 174 168 486 92 245 268 713 392 1040 151 401 237 618 266
665 23 38 76 104 117 146 87 88 1008 858 1048 876 31 15 76 9 109 -12z m376
-104 c108 -66 73 -225 -84 -385 -48 -49 -82 -77 -88 -71 -4 6 -11 29 -14 52
-5 39 -2 45 25 64 46 33 88 97 88 136 0 92 -132 111 -274 39 l-69 -36 -38 33
c-20 17 -38 35 -38 40 -1 11 102 75 167 104 128 56 258 66 325 24z m-498 -216
c31 -30 32 -66 2 -101 -43 -50 -116 -29 -132 37 -5 19 0 34 20 57 34 40 75 43
110 7z m355 7 c0 -10 -13 -31 -29 -46 l-28 -27 -7 32 c-11 55 -8 59 29 59 27
0 35 -4 35 -18z"/>
<path d="M2269 3087 c-77 -41 -129 -154 -129 -281 0 -52 9 -66 39 -66 5 0 11
37 13 83 6 96 30 157 77 202 28 26 40 30 89 30 93 0 183 -58 240 -154 20 -35
26 -59 27 -105 1 -73 19 -84 61 -37 41 47 99 64 192 59 61 -3 89 -11 131 -33
71 -39 96 -76 96 -141 -1 -97 -89 -198 -271 -313 -104 -65 -533 -321 -538
-321 -2 0 -7 21 -10 48 -4 26 -23 150 -43 275 -32 206 -38 229 -57 237 -31 11
-31 -9 -2 -188 45 -274 65 -414 59 -428 -9 -23 43 -28 64 -7 11 11 150 97 309
193 308 184 372 228 446 307 126 136 128 278 5 360 -96 64 -217 80 -328 43
-34 -12 -62 -20 -63 -18 -1 2 -8 21 -14 43 -26 86 -127 187 -221 220 -63 22
-120 19 -172 -8z"/>
<path d="M2406 2725 c-42 -52 -78 -95 -80 -95 -2 0 -85 31 -184 70 -103 40
-187 67 -197 64 -10 -4 -15 -16 -13 -32 3 -22 21 -32 193 -98 104 -41 197 -74
206 -74 19 0 72 47 107 95 27 38 27 36 7 -160 -16 -152 -13 -175 22 -175 8 0
61 48 118 107 l104 107 -6 -41 c-8 -58 8 -78 79 -102 94 -32 127 -26 113 18
-4 13 -26 26 -63 39 l-57 19 0 89 c0 86 -1 89 -24 92 -20 3 -43 -16 -124 -100
l-99 -103 6 60 c3 33 9 111 13 174 6 104 5 115 -12 127 -10 8 -22 14 -26 14
-4 0 -41 -43 -83 -95z"/>
</g>
</svg>
