<?xml version="1.0" standalone="no"?>
<!DOCTYPE svg PUBLIC "-//W3C//DTD SVG 20010904//EN"
 "http://www.w3.org/TR/2001/REC-SVG-20010904/DTD/svg10.dtd">
<svg version="1.0" xmlns="http://www.w3.org/2000/svg"
 width="512.000000pt" height="512.000000pt" viewBox="0 0 512.000000 512.000000"
 preserveAspectRatio="xMidYMid meet">

<g transform="translate(0.000000,512.000000) scale(0.100000,-0.100000)"
fill="#000000" stroke="none">
<path d="M2485 4669 c-1011 -52 -1830 -862 -1926 -1905 -22 -240 1 -521 60
-749 277 -1060 1285 -1716 2326 -1515 730 142 1338 704 1561 1443 168 557 105
1170 -171 1669 -349 630 -959 1018 -1665 1061 -30 1 -113 0 -185 -4z m403
-103 c846 -138 1515 -858 1617 -1741 119 -1032 -517 -1984 -1490 -2229 -273
-69 -642 -65 -922 9 -697 184 -1244 759 -1411 1480 -53 230 -67 516 -37 747
109 829 694 1505 1475 1703 173 44 275 55 485 50 105 -2 232 -11 283 -19z"/>
<path d="M2325 4160 c-223 -47 -400 -144 -552 -303 -187 -196 -267 -391 -267
-657 -1 -147 8 -185 52 -237 l27 -32 215 -7 c307 -10 310 -8 310 171 0 161 56
294 167 395 64 58 104 81 188 105 172 51 364 -42 443 -213 35 -76 44 -246 18
-338 -23 -78 -90 -179 -168 -251 -208 -192 -364 -393 -467 -600 -70 -141 -85
-194 -86 -290 0 -75 2 -85 25 -107 l25 -25 237 7 c154 5 242 12 249 19 6 6 19
56 29 110 30 168 60 210 357 508 279 281 385 417 431 559 49 147 52 286 10
456 -90 372 -415 665 -817 735 -117 21 -314 18 -426 -5z m345 -50 c408 -50
730 -316 831 -685 19 -70 21 -97 16 -210 -5 -110 -10 -144 -36 -220 -33 -95
-51 -125 -168 -272 -97 -122 -153 -184 -309 -338 -72 -71 -147 -150 -166 -175
-59 -75 -108 -173 -122 -246 -22 -119 -6 -111 -230 -119 -107 -4 -199 -4 -205
-1 -18 11 -13 112 10 178 74 219 263 487 505 714 173 162 222 259 223 439 3
314 -243 543 -530 495 -257 -43 -448 -288 -449 -572 0 -37 -5 -78 -11 -92
l-12 -25 -141 5 c-77 3 -168 7 -201 10 l-60 5 -23 52 c-42 98 -27 299 37 462
121 311 436 548 791 594 94 12 154 12 250 1z"/>
<path d="M2408 1555 c-142 -58 -229 -160 -258 -299 -14 -70 -7 -133 25 -202
108 -240 439 -272 631 -61 70 78 96 145 96 249 0 135 -67 239 -190 300 -59 29
-77 33 -157 35 -75 1 -100 -2 -147 -22z m267 -69 c60 -27 107 -72 138 -130 33
-62 30 -173 -6 -244 -37 -70 -96 -128 -166 -160 -77 -37 -203 -38 -272 -5 -94
47 -148 126 -156 228 -11 136 91 277 232 321 68 22 173 17 230 -10z"/>
</g>
</svg>
