<?xml version="1.0" standalone="no"?>
<!DOCTYPE svg PUBLIC "-//W3C//DTD SVG 20010904//EN"
 "http://www.w3.org/TR/2001/REC-SVG-20010904/DTD/svg10.dtd">
<svg version="1.0" xmlns="http://www.w3.org/2000/svg"
 width="512.000000pt" height="512.000000pt" viewBox="0 0 512.000000 512.000000"
 preserveAspectRatio="xMidYMid meet">

<g transform="translate(0.000000,512.000000) scale(0.100000,-0.100000)"
fill="#000000" stroke="none">
<path d="M2455 4897 c-131 -44 -213 -146 -223 -279 l-5 -68 -109 0 c-122 0
-162 -11 -197 -56 -17 -21 -21 -36 -17 -59 4 -17 4 -45 0 -61 l-6 -30 -296
-11 c-320 -11 -347 -16 -404 -70 -30 -29 -53 -89 -66 -173 -4 -30 -2 -642 5
-1360 6 -718 14 -1487 16 -1710 4 -439 4 -445 61 -527 51 -74 107 -104 218
-115 112 -12 2238 -3 2316 10 39 6 61 17 86 41 41 40 88 127 106 196 17 63 16
169 -15 1755 -14 690 -25 1366 -25 1503 0 274 -8 322 -69 397 -61 75 -60 75
-401 75 l-305 0 -3 50 c-6 132 -20 145 -160 145 l-89 0 -5 58 c-11 119 -88
226 -196 274 -57 26 -162 33 -217 15z m176 -72 c96 -33 169 -131 169 -227 0
-48 0 -48 -34 -48 -31 0 -34 3 -41 37 -29 158 -178 224 -285 127 -39 -36 -80
-109 -80 -144 0 -16 -7 -20 -36 -20 l-37 0 7 57 c20 172 176 273 337 218z
m-19 -162 c27 -28 48 -72 48 -99 0 -11 -22 -14 -115 -14 -131 0 -134 3 -91 74
42 70 112 87 158 39z m436 -195 c9 -9 12 -69 12 -208 l0 -197 -27 -14 c-41
-20 -1007 -31 -1040 -12 -23 13 -23 17 -23 210 0 169 2 199 17 215 15 17 45
18 533 18 388 0 519 -3 528 -12z m694 -204 c22 -13 43 -39 63 -79 l30 -60 7
-635 c3 -349 16 -1110 28 -1690 12 -580 19 -1075 17 -1100 -7 -62 -30 -123
-62 -170 -33 -47 -77 -66 -190 -79 -45 -6 -545 -11 -1145 -13 -903 -3 -1072
-1 -1108 11 -67 22 -120 76 -144 146 -23 65 -24 106 -39 2885 l-4 645 25 50
c14 28 40 60 59 72 33 23 40 23 327 23 l294 0 0 -105 c0 -115 13 -162 51 -189
21 -14 62 -16 334 -15 170 0 411 4 535 8 310 10 310 10 310 208 l0 116 289 -5
c261 -5 292 -7 323 -24z"/>
<path d="M3379 3640 c-88 -47 -125 -132 -95 -220 8 -24 14 -45 13 -45 -46 -19
-61 -31 -83 -67 -32 -50 -35 -58 -159 -407 -52 -145 -97 -266 -99 -269 -3 -3
-11 0 -19 6 -10 8 -29 6 -75 -8 -98 -31 -153 -35 -193 -15 -27 14 -49 17 -119
12 -47 -3 -92 -1 -101 3 -39 22 -85 -23 -58 -57 11 -13 30 -14 120 -8 92 6
111 4 134 -11 33 -22 154 -15 238 14 35 11 56 15 54 8 -2 -6 -44 -124 -93
-263 l-89 -251 -55 -29 c-50 -25 -64 -28 -154 -27 -87 0 -101 3 -110 19 -6 11
-23 32 -38 47 -22 23 -35 28 -76 28 -27 0 -69 -7 -92 -15 -66 -23 -98 -20
-106 10 -3 14 -15 30 -25 35 -15 8 -26 4 -57 -25 -45 -40 -104 -68 -126 -59
-17 6 -18 10 -20 58 0 16 -9 34 -19 40 -15 9 -22 6 -41 -17 l-22 -27 -21 27
c-27 35 -44 27 -93 -45 -19 -28 -38 -51 -41 -52 -3 0 -12 15 -20 33 -17 39
-54 47 -95 21 -30 -20 -57 -75 -48 -98 10 -27 48 -19 68 15 l19 32 13 -32 c17
-39 53 -58 83 -42 12 7 34 30 50 51 25 35 30 38 42 24 8 -10 22 -14 40 -10 20
4 32 -1 49 -20 34 -35 97 -33 166 6 44 25 54 27 64 15 20 -24 73 -28 141 -10
35 10 75 19 89 21 21 4 20 2 -7 -11 -42 -19 -63 -51 -63 -97 0 -44 28 -78 62
-78 34 0 85 35 103 70 11 21 22 29 33 26 67 -18 196 -14 254 9 14 5 11 -11
-18 -90 -19 -54 -44 -118 -56 -144 -33 -72 -42 -175 -32 -371 9 -167 10 -175
30 -178 14 -2 30 9 50 35 16 21 61 72 100 113 120 128 184 216 216 299 267
690 571 1515 575 1556 3 37 -1 58 -15 80 l-18 30 60 30 c47 24 65 39 84 75 68
128 -39 271 -202 270 -40 -1 -74 -7 -97 -20z m182 -66 c72 -37 92 -122 41
-174 -90 -90 -262 -32 -262 89 0 84 128 134 221 85z m-120 -298 c22 -15 47
-41 55 -59 15 -31 13 -37 -96 -327 -61 -162 -165 -437 -230 -610 -252 -669
-269 -712 -312 -770 -48 -63 -177 -200 -190 -200 -4 0 -8 66 -8 148 0 162 3
174 73 353 24 63 154 421 287 796 222 622 246 683 269 692 41 16 107 6 152
-23z m-1098 -1338 c-13 -12 -25 -19 -29 -15 -10 10 16 37 34 37 13 0 12 -4 -5
-22z"/>
<path d="M1647 3543 c-2 -5 -8 -26 -12 -47 -3 -22 -18 -68 -32 -103 -25 -62
-26 -63 -63 -63 -47 0 -85 -29 -100 -76 -10 -29 -9 -39 4 -59 24 -37 70 -31
122 17 22 19 22 19 63 -1 52 -27 67 -26 144 5 l64 26 41 -27 c35 -23 49 -26
99 -23 32 2 79 11 105 18 45 13 51 12 113 -13 92 -38 149 -42 320 -21 83 10
204 18 270 18 114 1 123 3 185 33 84 41 140 92 140 127 0 43 -26 42 -73 -1
-55 -51 -144 -93 -197 -93 -37 0 -40 2 -30 19 22 42 -28 102 -101 121 -49 13
-84 4 -109 -27 -24 -30 -25 -54 -5 -92 l14 -28 -100 -12 c-154 -17 -195 -14
-293 20 l-89 31 -88 -23 -88 -22 -38 26 c-60 40 -83 42 -152 12 -59 -27 -86
-28 -120 -6 -11 7 -8 22 17 82 37 91 49 154 32 174 -13 16 -36 20 -43 8z
m1081 -225 c14 -12 -1 -38 -23 -38 -22 0 -59 36 -51 49 9 14 52 7 74 -11z"/>
<path d="M2129 2701 c-36 -27 -89 -61 -118 -76 -58 -29 -86 -28 -129 6 -35 27
-72 24 -118 -11 -21 -16 -48 -30 -59 -30 -13 0 -45 25 -81 64 -39 41 -71 66
-91 70 -46 10 -114 -22 -142 -67 -39 -64 -25 -162 22 -155 20 3 22 8 19 55 -3
45 0 56 22 78 38 38 72 33 115 -17 64 -74 79 -87 105 -94 35 -8 65 0 112 32
l39 27 37 -22 c80 -46 160 -24 306 85 72 55 82 70 60 92 -19 19 -31 15 -99
-37z"/>
<path d="M1680 1601 c-5 -11 -10 -31 -10 -46 0 -29 -31 -94 -68 -142 -21 -29
-30 -33 -71 -33 -79 0 -137 -51 -112 -98 18 -33 58 -36 115 -8 46 23 53 24 71
11 63 -47 58 -45 116 -33 53 11 58 10 125 -21 99 -47 137 -48 279 -12 160 40
291 50 333 26 16 -10 37 -15 46 -12 25 10 20 54 -9 73 -40 26 -250 15 -385
-21 -58 -15 -119 -27 -136 -27 -17 1 -60 15 -95 32 -56 27 -73 31 -135 28 -49
-2 -77 2 -88 11 -21 18 -20 27 8 64 52 70 81 161 65 205 -10 27 -35 28 -49 3z"/>
</g>
</svg>
