<?xml version="1.0" standalone="no"?>
<!DOCTYPE svg PUBLIC "-//W3C//DTD SVG 20010904//EN"
 "http://www.w3.org/TR/2001/REC-SVG-20010904/DTD/svg10.dtd">
<svg version="1.0" xmlns="http://www.w3.org/2000/svg"
 width="512.000000pt" height="512.000000pt" viewBox="0 0 512.000000 512.000000"
 preserveAspectRatio="xMidYMid meet">

<g transform="translate(0.000000,512.000000) scale(0.100000,-0.100000)"
fill="#000000" stroke="none">
<path d="M2415 4829 c-103 -12 -254 -50 -329 -83 -58 -26 -58 -27 -53 -64 2
-20 41 -122 85 -226 45 -104 80 -192 77 -194 -2 -2 -55 -22 -117 -43 -116 -40
-287 -118 -371 -170 -26 -16 -51 -29 -56 -29 -5 0 -48 97 -96 216 -57 140 -96
221 -109 229 -64 42 -276 -77 -448 -252 -126 -129 -268 -350 -268 -418 0 -33
11 -39 245 -140 110 -48 204 -90 209 -95 5 -5 -8 -35 -28 -69 -85 -139 -172
-360 -198 -499 -7 -35 -17 -66 -23 -68 -6 -3 -102 27 -214 66 -112 38 -216 70
-232 70 -61 0 -107 -134 -116 -335 -9 -206 29 -419 103 -577 35 -73 39 -78 69
-78 20 0 103 35 219 91 103 50 190 88 194 85 3 -4 23 -58 43 -121 48 -144 99
-255 177 -379 34 -54 60 -101 57 -105 -2 -4 -91 -45 -197 -91 -189 -82 -238
-110 -238 -137 0 -21 75 -166 119 -231 66 -98 179 -220 269 -292 152 -122 312
-185 347 -136 8 10 53 116 100 235 48 119 88 217 89 219 2 1 41 -18 87 -42
125 -67 314 -134 427 -152 24 -4 46 -12 48 -19 3 -6 -34 -101 -81 -211 -46
-109 -85 -211 -85 -227 0 -24 8 -31 58 -53 154 -69 419 -106 612 -85 178 19
330 79 330 129 0 9 -40 118 -89 242 l-89 225 32 9 c116 32 253 83 342 128 58
28 107 48 110 45 3 -3 36 -88 74 -189 38 -100 77 -198 87 -217 17 -32 19 -33
69 -29 148 12 410 212 564 429 59 84 120 199 120 227 0 32 -39 56 -225 141
-99 45 -184 86 -188 90 -5 5 17 47 48 94 74 113 136 246 181 385 20 61 42 112
48 112 7 0 101 -41 210 -91 124 -56 209 -89 225 -87 34 4 73 63 105 158 38
116 49 221 43 403 -6 170 -23 271 -61 367 -20 51 -25 55 -57 58 -23 2 -96 -19
-226 -67 -105 -38 -199 -71 -209 -73 -14 -2 -20 12 -35 79 -40 185 -125 391
-226 547 -35 54 -42 71 -31 78 20 15 265 132 331 158 84 35 101 53 93 106 -23
171 -313 485 -559 605 -55 27 -108 49 -118 49 -45 0 -77 -52 -160 -255 -45
-110 -85 -204 -89 -208 -3 -4 -44 13 -91 37 -112 60 -247 111 -370 141 -56 13
-103 26 -106 28 -2 2 33 96 77 208 44 112 80 212 80 221 0 27 -63 68 -142 93
-130 41 -297 53 -473 34z m410 -84 c32 -9 76 -25 97 -36 l38 -19 -19 -48 c-10
-26 -46 -116 -80 -200 -34 -84 -61 -163 -61 -175 0 -39 22 -53 110 -71 163
-34 340 -103 474 -185 38 -23 75 -40 82 -37 20 8 69 105 139 281 38 94 74 176
80 184 11 11 23 8 76 -18 154 -73 311 -211 410 -358 43 -63 99 -176 99 -198 0
-3 -91 -51 -202 -105 -111 -55 -208 -106 -216 -114 -17 -17 -16 -19 43 -111
142 -222 208 -388 261 -662 2 -13 15 -30 29 -39 23 -15 28 -15 57 -1 45 21
393 147 406 147 14 0 45 -100 63 -200 20 -109 17 -346 -5 -445 -19 -87 -61
-191 -80 -198 -6 -2 -103 38 -216 89 -115 53 -219 94 -236 94 -30 0 -31 -1
-54 -86 -51 -194 -173 -443 -277 -568 l-24 -29 42 -27 c23 -16 122 -65 220
-111 124 -57 179 -87 179 -98 0 -25 -82 -158 -142 -231 -55 -68 -149 -159
-230 -224 -58 -46 -191 -116 -223 -116 -24 0 -28 7 -133 289 -22 57 -51 119
-66 137 l-27 34 -102 -55 c-125 -66 -251 -115 -377 -146 -52 -13 -96 -24 -98
-25 -7 -4 28 -105 88 -254 34 -85 71 -176 81 -202 l19 -48 -38 -19 c-145 -74
-463 -81 -691 -15 -46 14 -94 30 -106 37 l-23 12 85 200 c56 129 87 214 87
239 l1 39 -89 18 c-174 35 -336 95 -478 175 -44 25 -83 42 -87 37 -3 -5 -18
-25 -34 -45 -15 -19 -63 -122 -106 -229 -64 -155 -84 -195 -100 -197 -78 -12
-321 176 -455 352 -54 70 -136 210 -136 232 0 10 354 170 417 188 52 16 49 30
-30 148 -123 183 -185 327 -253 586 -7 27 -65 8 -252 -83 -107 -52 -198 -95
-202 -95 -17 0 -74 161 -100 280 -7 30 -15 127 -17 215 -5 142 -3 171 16 245
12 47 27 90 34 97 10 11 52 0 222 -57 115 -38 212 -75 216 -82 14 -22 63 24
73 68 51 230 109 384 202 541 l64 107 -28 36 c-24 29 -64 50 -228 121 -121 53
-200 93 -202 102 -2 8 10 42 27 74 98 194 310 408 484 489 90 41 83 48 172
-173 43 -109 86 -211 95 -227 29 -54 40 -54 126 1 146 93 298 159 472 204 l82
21 0 37 c0 23 -30 108 -84 236 -59 141 -81 202 -73 207 26 17 177 60 257 73
113 19 372 13 455 -10z"/>
<path d="M2432 3663 c-248 -37 -470 -164 -642 -365 -84 -100 -119 -162 -164
-299 -46 -138 -60 -243 -53 -393 29 -631 637 -1077 1255 -920 285 72 520 262
654 529 192 381 117 852 -183 1155 -167 168 -403 281 -619 296 -41 2 -93 6
-115 8 -22 2 -82 -3 -133 -11z m398 -61 c282 -86 494 -259 617 -507 101 -201
129 -455 74 -666 -106 -412 -462 -708 -886 -736 -142 -9 -254 9 -355 59 -73
36 -102 58 -205 162 -173 174 -252 302 -307 504 -17 63 -21 105 -21 232 0 136
3 167 26 253 52 194 119 316 246 450 122 128 248 211 391 259 77 25 324 20
420 -10z"/>
</g>
</svg>
