<?xml version="1.0" standalone="no"?>
<!DOCTYPE svg PUBLIC "-//W3C//DTD SVG 20010904//EN"
 "http://www.w3.org/TR/2001/REC-SVG-20010904/DTD/svg10.dtd">
<svg version="1.0" xmlns="http://www.w3.org/2000/svg"
 width="512.000000pt" height="512.000000pt" viewBox="0 0 512.000000 512.000000"
 preserveAspectRatio="xMidYMid meet">

<g transform="translate(0.000000,512.000000) scale(0.100000,-0.100000)"
fill="#000000" stroke="none">
<path d="M4339 4490 c-86 -15 -212 -93 -299 -187 -77 -83 -490 -567 -537 -629
-21 -28 -89 -114 -151 -190 -174 -215 -515 -645 -542 -684 -13 -19 -47 -62
-75 -95 -72 -83 -216 -263 -246 -305 -47 -70 -221 -280 -309 -376 -96 -105
-171 -164 -206 -164 -38 0 -115 82 -238 251 -66 90 -147 202 -181 249 -34 47
-71 99 -81 115 -21 33 -79 113 -187 253 -84 110 -205 227 -279 268 -47 26 -63
29 -138 29 -74 0 -92 -4 -140 -29 -66 -34 -92 -57 -132 -114 -89 -128 -98
-322 -23 -461 44 -81 312 -436 400 -531 28 -30 108 -130 177 -221 326 -428
526 -639 665 -701 61 -27 139 -48 179 -48 108 0 339 99 459 198 74 61 305 316
515 569 170 204 1177 1409 1390 1663 163 194 312 391 361 477 12 21 33 58 47
81 28 49 62 169 62 217 0 34 -27 121 -55 176 -81 158 -232 223 -436 189z m241
-82 c75 -39 130 -105 161 -194 35 -103 12 -208 -78 -351 -30 -48 -61 -99 -68
-113 -18 -33 -170 -221 -370 -456 -88 -104 -364 -434 -614 -734 -250 -300
-502 -601 -561 -670 -58 -69 -141 -169 -183 -222 -267 -334 -516 -565 -671
-623 -39 -14 -108 -32 -154 -40 -79 -14 -87 -14 -143 5 -74 25 -126 57 -204
126 -67 58 -199 205 -302 335 -37 47 -117 149 -178 225 -92 118 -207 257 -327
399 -15 18 -72 92 -127 166 -146 194 -179 272 -168 401 12 138 92 254 196 285
109 31 195 -1 312 -117 73 -72 270 -328 338 -439 40 -67 333 -459 391 -524 23
-26 62 -59 85 -73 68 -39 107 -23 220 91 50 50 115 121 145 158 30 38 84 104
120 147 60 73 340 420 1010 1255 396 493 713 860 789 913 99 69 134 82 232 82
78 0 92 -3 149 -32z"/>
</g>
</svg>
