<?xml version="1.0" standalone="no"?>
<!DOCTYPE svg PUBLIC "-//W3C//DTD SVG 20010904//EN"
 "http://www.w3.org/TR/2001/REC-SVG-20010904/DTD/svg10.dtd">
<svg version="1.0" xmlns="http://www.w3.org/2000/svg"
 width="512.000000pt" height="512.000000pt" viewBox="0 0 512.000000 512.000000"
 preserveAspectRatio="xMidYMid meet">

<g transform="translate(0.000000,512.000000) scale(0.100000,-0.100000)"
fill="#000000" stroke="none">
<path d="M2430 4249 c-537 -32 -1027 -320 -1307 -770 -106 -169 -181 -356
-225 -559 -30 -141 -33 -484 -5 -625 126 -636 569 -1120 1189 -1299 204 -59
502 -74 721 -36 447 76 849 337 1105 717 117 174 214 422 252 648 19 113 22
154 17 315 -6 208 -24 314 -81 484 -137 410 -429 748 -817 946 -189 97 -409
160 -604 175 -44 3 -89 7 -100 9 -11 1 -76 -1 -145 -5z m175 -69 c22 0 22 -1
9 -37 -18 -51 -17 -139 1 -199 19 -64 20 -61 -21 -68 -22 -5 -59 -28 -99 -62
-36 -29 -68 -54 -72 -54 -4 1 -30 35 -58 78 -64 99 -110 133 -216 162 -82 21
-169 62 -169 79 0 16 137 58 265 82 80 16 239 28 294 23 24 -2 54 -4 66 -4z
m255 -31 c256 -55 535 -195 705 -353 49 -46 57 -57 45 -66 -33 -22 -123 -50
-193 -58 -129 -17 -142 -38 -82 -138 51 -88 84 -131 140 -181 264 -242 288
-294 214 -468 -34 -80 -34 -80 -33 -235 1 -140 4 -166 32 -275 42 -157 125
-329 192 -396 27 -27 58 -49 70 -49 19 0 19 -2 7 -33 -23 -53 -106 -186 -171
-271 -208 -275 -532 -488 -875 -576 -44 -11 -84 -20 -91 -20 -6 0 9 28 33 62
63 90 77 121 77 175 0 61 -13 80 -105 148 -41 30 -81 65 -90 78 -8 13 -19 62
-24 110 -6 67 -15 96 -34 126 -41 61 -150 105 -292 116 -69 6 -230 -6 -271
-20 -18 -6 -24 1 -45 52 -28 69 -70 117 -164 188 -113 85 -169 152 -226 267
-46 94 -50 108 -47 160 8 109 56 128 180 72 98 -44 218 -75 242 -62 12 7 16
24 16 66 0 80 24 184 55 241 15 27 60 85 101 130 105 116 127 167 104 251 -17
64 -67 110 -118 110 -56 0 -157 -33 -224 -75 l-58 -34 0 76 c0 91 -26 155 -71
179 -61 31 -23 110 75 154 96 43 113 95 52 156 -31 31 -40 34 -90 34 -30 0
-76 -7 -102 -16 -29 -10 -50 -12 -56 -6 -5 5 -12 51 -16 102 -9 106 -18 93
110 156 l76 37 47 -41 c47 -41 78 -55 195 -88 74 -21 126 -66 174 -149 36 -63
75 -105 97 -105 9 0 49 27 89 60 42 35 89 65 113 72 79 22 92 52 62 138 -18
51 -19 138 -3 191 11 38 12 39 52 33 23 -4 79 -15 126 -25z m-1185 -396 c15
-60 57 -78 115 -48 42 22 113 30 139 16 34 -19 26 -46 -16 -59 -65 -20 -99
-48 -127 -103 -39 -79 -35 -103 24 -160 28 -27 51 -56 51 -66 1 -10 4 -67 8
-128 5 -100 8 -110 26 -113 11 -1 43 15 73 37 93 70 201 111 256 97 17 -4 28
-17 36 -42 21 -62 6 -96 -85 -201 -46 -53 -95 -118 -109 -143 -33 -60 -56
-150 -56 -217 l0 -52 -32 5 c-18 4 -73 24 -122 45 -103 46 -171 51 -223 19
-49 -30 -67 -73 -68 -160 0 -71 3 -81 54 -184 60 -121 130 -199 271 -305 69
-52 79 -64 118 -144 48 -100 71 -118 119 -94 37 20 206 39 270 31 69 -9 175
-41 199 -62 35 -30 47 -63 54 -147 8 -101 36 -146 129 -212 36 -26 69 -52 73
-57 4 -6 8 -31 8 -55 0 -38 -9 -56 -70 -141 l-71 -98 -105 -7 c-138 -10 -354
8 -354 29 0 17 -80 120 -165 212 -117 128 -120 136 -120 284 0 117 -2 129 -28
182 -35 71 -102 146 -181 203 -34 24 -71 54 -81 66 -11 12 -45 39 -76 60 -69
47 -113 111 -140 204 -26 92 -42 127 -89 200 -101 155 -113 253 -60 475 27
114 31 148 27 215 -7 100 -26 164 -71 235 -19 30 -43 69 -52 87 l-17 32 56 73
c74 97 213 234 312 308 l80 60 6 -74 c4 -41 10 -87 14 -103z m2055 -120 c268
-300 418 -756 381 -1159 -15 -178 -52 -339 -107 -470 l-15 -37 -52 54 c-123
128 -219 408 -220 639 0 96 3 113 37 203 63 171 47 262 -72 388 -33 35 -88 87
-121 114 -88 72 -192 209 -177 234 3 4 35 11 70 14 44 4 89 17 138 41 40 19
76 35 80 35 3 1 30 -25 58 -56z m-2490 -328 c19 -38 34 -90 41 -140 11 -77 10
-86 -25 -231 -60 -249 -49 -332 68 -529 30 -49 64 -124 76 -165 40 -137 70
-176 231 -307 35 -28 91 -71 125 -96 67 -49 129 -134 151 -206 10 -35 11 -62
4 -116 -17 -118 9 -181 121 -302 74 -79 138 -156 138 -166 0 -8 -125 27 -202
57 -162 60 -361 179 -488 290 -376 329 -586 843 -541 1325 21 225 63 378 163
581 l60 124 24 -29 c14 -17 38 -57 54 -90z"/>
</g>
</svg>
