<?xml version="1.0" standalone="no"?>
<!DOCTYPE svg PUBLIC "-//W3C//DTD SVG 20010904//EN"
 "http://www.w3.org/TR/2001/REC-SVG-20010904/DTD/svg10.dtd">
<svg version="1.0" xmlns="http://www.w3.org/2000/svg"
 width="512.000000pt" height="512.000000pt" viewBox="0 0 512.000000 512.000000"
 preserveAspectRatio="xMidYMid meet">

<g transform="translate(0.000000,512.000000) scale(0.100000,-0.100000)"
fill="#000000" stroke="none">
<path d="M3770 4766 c-66 -22 -100 -47 -203 -149 -71 -70 -125 -135 -172 -207
-37 -58 -98 -152 -136 -210 -108 -166 -691 -1044 -698 -1053 -4 -4 -75 82
-157 190 -478 630 -691 913 -721 960 -55 87 -188 247 -255 307 -83 76 -134 98
-229 104 -96 6 -159 -13 -239 -69 -66 -46 -91 -82 -120 -169 -34 -101 -26
-202 23 -300 21 -41 73 -118 117 -170 116 -140 1095 -1418 1095 -1430 0 -12
-979 -1290 -1095 -1430 -44 -52 -96 -129 -117 -170 -49 -98 -57 -199 -23 -300
29 -87 54 -123 120 -169 80 -56 143 -75 239 -69 95 6 146 28 229 104 67 60
200 220 255 307 30 47 243 330 721 960 82 108 153 194 157 190 4 -5 147 -219
318 -478 296 -446 357 -539 516 -785 71 -110 227 -276 301 -322 85 -53 205
-63 312 -27 124 42 230 194 240 344 10 162 51 101 -1120 1673 l-129 172 129
173 c875 1174 995 1338 1056 1446 59 104 69 140 64 226 -10 150 -116 302 -240
344 -69 23 -179 27 -238 7z m230 -87 c68 -30 116 -83 146 -160 23 -58 26 -78
22 -138 -6 -79 -31 -129 -172 -338 -144 -213 -169 -248 -411 -573 -552 -740
-655 -882 -655 -900 0 -18 103 -160 655 -900 242 -325 267 -360 411 -573 141
-209 166 -259 172 -338 9 -131 -59 -249 -173 -300 -73 -33 -172 -31 -242 4
-70 36 -162 123 -232 221 -67 93 -912 1360 -930 1394 -7 13 -21 22 -36 22 -15
0 -29 -9 -36 -22 -7 -13 -202 -274 -433 -581 -232 -307 -441 -589 -465 -625
-111 -168 -241 -306 -333 -351 -64 -32 -68 -33 -133 -22 -114 17 -186 66 -233
156 -21 41 -26 64 -27 125 0 68 4 84 37 150 26 52 214 306 605 816 313 407
580 755 596 773 34 41 34 61 0 102 -16 18 -283 366 -596 773 -391 510 -579
764 -605 816 -33 66 -37 82 -37 150 1 61 6 84 27 125 47 90 119 139 233 156
65 11 69 10 133 -22 92 -45 222 -183 333 -351 24 -36 233 -318 465 -625 231
-307 426 -568 433 -580 7 -14 21 -23 36 -23 15 0 29 9 36 23 18 33 863 1300
930 1393 97 135 207 225 299 245 49 11 127 1 180 -22z"/>
</g>
</svg>
